/* XPM */
static char *bbcb4423d13d4912ff7c6af71ae82844OF8bgqmTKSzhJoXx[] = {
/* columns rows colors chars-per-pixel */
"64 64 248 2 ",
"   c None",
".  c #000101",
"X  c #05080A",
"o  c #131414",
"O  c #202D33",
"+  c #490114",
"@  c #590513",
"#  c #571D11",
"$  c #670613",
"%  c #760A14",
"&  c #6D1613",
"*  c #6D2914",
"=  c #6F302B",
"-  c #724A11",
";  c #27516C",
":  c #454747",
">  c #636566",
",  c #9A1214",
"<  c #8C0D14",
"1  c #932824",
"2  c #CB302C",
"3  c #ED312C",
"4  c #8B7413",
"5  c #B15A2B",
"6  c #BA612F",
"7  c #926F27",
"8  c #C8652C",
"9  c #D76A2B",
"0  c #D7732C",
"q  c #E66D28",
"w  c #8E4E54",
"e  c #AF6F53",
"r  c #8F6F6D",
"t  c #AF776D",
"y  c #A94D51",
"u  c #DC745A",
"i  c #CE756F",
"p  c #EB7A6D",
"a  c #EB776A",
"s  c #7FC972",
"d  c #9A8610",
"f  c #A9930E",
"g  c #B9A712",
"h  c #B0982B",
"j  c #B9AC2C",
"k  c #9C8828",
"l  c #C4B917",
"z  c #C6B408",
"x  c #ED8D28",
"c  c #C8B729",
"v  c #C7AB38",
"b  c #CBB636",
"n  c #CDB328",
"m  c #F0AE29",
"M  c #E4A024",
"N  c #D7C90A",
"B  c #D5C919",
"V  c #DDD217",
"C  c #D6C910",
"Z  c #E6DB0A",
"A  c #E4D818",
"S  c #F0D41C",
"D  c #EEE40C",
"F  c #F5EB0B",
"G  c #FFF603",
"H  c #FFF803",
"J  c #FDF30B",
"K  c #FFF80A",
"L  c #ECE315",
"P  c #FBEE13",
"I  c #FAEC1A",
"U  c #F4EA18",
"Y  c #FCF313",
"T  c #FCF31A",
"R  c #DAC82A",
"E  c #D8C636",
"W  c #D3CC34",
"Q  c #E7D824",
"!  c #E5D536",
"~  c #EFCF37",
"^  c #F7E826",
"/  c #FDF628",
"(  c #F6E735",
")  c #FDF637",
"_  c #EDE32C",
"`  c #969151",
"'  c #AFA84B",
"]  c #AA9073",
"[  c #B8AA71",
"{  c #A0935D",
"}  c #C9AB43",
"|  c #CDB645",
" . c #D6BA49",
".. c #CCB25A",
"X. c #E9AC4F",
"o. c #ED856D",
"O. c #EF9470",
"+. c #C6B877",
"@. c #CDB46B",
"#. c #F9A972",
"$. c #FDB572",
"%. c #FDBB72",
"&. c #F8B36C",
"*. c #CA9953",
"=. c #85C96E",
"-. c #8ACA6C",
";. c #85CA72",
":. c #86CC7A",
">. c #96CC73",
",. c #97C96D",
"<. c #B7D278",
"1. c #A3CF75",
"2. c #D6C34A",
"3. c #D7C657",
"4. c #D6CD52",
"5. c #E8CA4C",
"6. c #EAD748",
"7. c #EECE55",
"8. c #EECE59",
"9. c #E6C655",
"0. c #F0CB58",
"q. c #EDD057",
"w. c #F1D54C",
"e. c #FCF646",
"r. c #FCF557",
"t. c #F2E74F",
"y. c #C7D57D",
"u. c #D2CA70",
"i. c #FDCB7D",
"p. c #FDC378",
"a. c #E7DB6F",
"s. c #FAF46D",
"d. c #297199",
"f. c #2A78A6",
"g. c #457A99",
"h. c #DC7D84",
"j. c #DC7EDE",
"k. c #E57EDC",
"l. c #E87DD8",
"z. c #DF7FE1",
"x. c #E17FE0",
"c. c #6994AE",
"v. c #3399D6",
"b. c #6E8CEB",
"n. c #6A87EA",
"m. c #728BEB",
"M. c #7A8BE9",
"N. c #7394EB",
"B. c #779CEC",
"V. c #4DAFEE",
"C. c #7CA7EC",
"Z. c #68BAF1",
"A. c #479CCB",
"S. c #7EC3F9",
"D. c #2A85BA",
"F. c #949690",
"G. c #AB958C",
"H. c #A9A499",
"J. c #AB9BA4",
"K. c #A8A6A6",
"L. c #B5ABA7",
"P. c #BAB8B7",
"I. c #B1B0B3",
"U. c #9D9DA5",
"Y. c #F08C8E",
"T. c #C6B786",
"R. c #C8B696",
"E. c #C3BCBC",
"W. c #C1B3AF",
"Q. c #DA918C",
"!. c #87CE87",
"~. c #89D195",
"^. c #8BD5A8",
"/. c #90DAB8",
"(. c #CEC48A",
"). c #D3CA8A",
"_. c #D9D782",
"`. c #CCC49A",
"'. c #D6C797",
"]. c #E7DC85",
"[. c #FDDA85",
"{. c #FADB87",
"}. c #F1CA8B",
"|. c #FCE18A",
" X c #F5E487",
".X c #FCF887",
"XX c #FAF698",
"oX c #EFE995",
"OX c #D3CCA8",
"+X c #C7C3BB",
"@X c #D6CCB7",
"#X c #D9D3BA",
"$X c #D1C8A6",
"%X c #ECD3B1",
"&X c #E8E3A1",
"*X c #BDBCC6",
"=X c #898AE8",
"-X c #9688E7",
";X c #A887E5",
":X c #B785E4",
">X c #84B5F0",
",X c #9FBACB",
"<X c #DB81DE",
"1X c #E280DF",
"2X c #C1BFCC",
"3X c #C983E2",
"4X c #DC80E1",
"5X c #E280E1",
"6X c #94DDC8",
"7X c #90DECD",
"8X c #96E3D8",
"9X c #8AC3F2",
"0X c #8DCBF4",
"qX c #97D9F7",
"wX c #94D0F8",
"eX c #ACD8F9",
"rX c #9BE7EA",
"tX c #9DEBF4",
"yX c #9BE5F8",
"uX c #9EECFA",
"iX c #9AE3F7",
"pX c #A7E9FA",
"aX c #B1C9D5",
"sX c #C7C6C9",
"dX c #DCD7C4",
"fX c #CCCBD5",
"gX c #D8D6D8",
"hX c #D0CED1",
"jX c #E1DCCB",
"kX c #ECDBCB",
"lX c #E8E5D9",
"zX c #EAE8D3",
"xX c #DBDBE5",
"cX c #C8D8EA",
"vX c #D5E7EE",
"bX c #E2E3EB",
"nX c #E9E9E7",
"mX c #F5F3EA",
"MX c #ECECF4",
"NX c #E5EAF4",
"BX c #ECF5FB",
"VX c #E9F1F9",
"CX c #F3F3F4",
"ZX c #F1F2F9",
"AX c #FDFDFD",
"SX c #F7F8F6",
"DX c #F1EDEE",
"FX c #E1DFE0",
/* pixels */
"                                                                                                                                ",
"                                                                                                                                ",
"                                                                                                                                ",
"                                                                                                                                ",
"                                                    l.l.k.k.1X<Xj.j.j.k.k.k.k.1X                                                ",
"                                              l.1X5X3X:X;X=XM.m.m.m.m.M.=X-X:X3X<X1Xl.                                          ",
"                                          l.<X3X;Xm.b.m.C.>X9X0X0X0X0X9X>X>XB.b.m.-X3X<Xk.l.                                    ",
"                                      k.4X:X=Xm.C.9XqXuXuXtXrX8X8X8X8XrXrXuXuXiX0XC.b.m.:X<Xl.l.                                ",
"                                  k.5X:X=XN.>XiXuXrX6X^.!.;.;.;.-.=.=.-.=.:.~.6XrXuXiX9XN.m.;X<Xk.                              ",
"                                k.3X=Xm.>XyXuX7X~.;.-.<.y.].].{.[.|. X{.].).<.>.=.!.6XrXyX9XN.=X3X1X                            ",
"                            l.k.:Xb.C.qXuX7X!.;.<.].|.|.[.[.[.p.i.i.i.i.[.[.{.|.].y.-.:./.tXyXC.m.;X1Xl.                        ",
"                          l.1X-Xb.9XuX8X~.;.<. X{.[.p.$.$.$.$.#.#.#.#.#.$.%.%.p.[.|.|.y.>.:.8XuX0XN.-X<Xl.                      ",
"                        l.<X-XN.qXtX/.;.<.].[.[.%.$.#.O.o.p p p p p p p p o.O.#.$.%.}.[.|.<.-.^.tXwXN.-X4Xk.                    ",
"                      l.5X=XB.qXrX^.-._.[.[.$.$.#.p p p a                 p p p o.O.$.$.[.{.].-.~.rXqXN.-X1Xl.                  ",
"                      1X-XB.qXtX~.>.].{.p.$.#.o.p p                             a a p #.$.p.[.{.1.!.rXiXN.-X5Xl.                ",
"                    x.;Xm.qXtX!.1.{.[.p.$.o.p a                                     p p o.#.%.[. X1.:.rXqXm.;X1X                ",
"                  k.:Xm.wXtX~.>. X[.%.$.p p                                             a p #.%.[.{.1.!.tX9Xb.3X1X              ",
"                j.<XM.>XtX^.:.{.[.%.#.o.p                                                 p p #.&.[. X>.^.uXC.=X4Xl.            ",
"                k.-XB.yX6X;._.[.%.#.p Q.mX      lXmX                                        p p #.%.{.].=.6XiXN.;X1X            ",
"              l.3Xb.wXrX:.y.|.p.#.u @.&X(.$XdXR._.).$XzXdX$X(.`.dXmXmX#X$X@XmX    AXAX      mXQ.p #.p.|.y.:.tX9Xm.4X1X          ",
"              k.=XC.uX^.>. Xi.$.O.*.r.G e..XoX.XY e.XX&X&XXXs..X&X).).oX.XXX).$X`.).).`.dXOX(.u.u o.&.i. X,./.tXN.;X1X          ",
"            1X3Xn.qXrXs a.i.%.O.Y.L.e.H H H H H K H U U K H H H Y e./ H F K s..Xs.r.r..XoXXXr.6.} u o.#.|.y.;.rX9Xm.1X          ",
"            l.-XC.yX^.1.|.i.#.a   jXt.H ( _ K B K H B L H H F H H L H H B J H H G H H G H H / | 8.X.9 m X. X,./.yXb.3Xk.        ",
"            j.b.0XrX=.y.[.%.O.a   mX4.T g B J B V l d l L L B H H j Y Y j G G V K H Y ) Y H ) | 0.0.q q m i.y.!.tX>X-X1X        ",
"          k.:Xn.iX/.=. Xi.&.a     OXT Y N F F ` sXVXAXnXI.k U H L ` K.P.K.' V j H K ! d j Y / 4.9.7.M q m &.{.-.8X0Xb.4X        ",
"          k.-XC.yX~.<.[.&.O.a   SX2.H H H J ] BXAXAXBXBXAXvX' B I.ZXAXAXAXSXK.B H / h f f V H r.} 7.&.q x m 9.,./.yXb.3Xl.      ",
"                        %.a     mX4./ H H j DXAXAXpXV.aXVXVX*XI.AXBXeXqXBXAXAXK._ Y f g g N H r.} q.w.q x m ~ ' ~.pXB.;Xk.      ",
"                                  `.r.H H H.AXAXVXv.O F.P.,Xc.AXBXZ.d.F.vXBXSXSXh H z z g F Y 4.9.q.n 5 q m S <.:.tX>X-Xk.      ",
"                                  dXt.H F I.AXAXeXg.. O : O K.AXqXf.. > K.aXeXAXF.K G Z D G ( 2.q.0. .h q m m ].;.rX9XM.x.      ",
"          xXxX                    `.) G Y I.AXAXvXU.o . . o P.AX9X; . o : ; Z.AXK.Y H H G H R 8.q.q.0.0.x m 9.{.=.8X0Xm.x.      ",
"      lXT...u.nX  mX            nXR B F H H.mXjXvXZ.O . . d.K.AXwXc.: . . d.wXSXF.K G G G G Q  .0.0.0.0.M M }.i.=.8XwXN.<X      ",
"      R.w.b ( #XjXu.OX          @X) N D H g [ a._.F.v.D.v.9XF.VXBX0Xc.; d.V.vXdXh J G G G G / | q.0.0.w.M m }.  =.7X0Xb.<X      ",
"    jXa.E V L 4.'.e.'.          @Xs.G G J F v ( ) .Xy.I.vXsX` K.ZXBX0XZ.0XaXu. Xa.3.U G G G J | 0.q.0.w.m m '.        b.4X      ",
"    jX_ Q U V F c P #X          zX3.T G G F n 5.( Y )  X+.h ( c U.NXSXAXVXa.e.Y P t. .H G G c 7.0.5.7.w.m m '.          j.      ",
"    CX2.F F G G D L #X            ).e.G G J S j  .w.^ J e.e.J P L ' F.F.[ ) V 4 n / E J G Z  .0.| 4 4 5.m ..%X                  ",
"      OXI J _ U H H OX            u./ G G I ~ n z n n B Z Z G G G G G J J N 4 *  .5. .K G c q.q.k 4 k 5.M %X                    ",
"      nXE Y ) 6.D H '.          lX! H H G F f B U Y J D F J G G G H J C d * @ - ~ T _ H J b q.7. .} 8.5...kX      vXcX          ",
"        #X! J / Q D dX          @Xt.H / E G Y Q c h b C N Z A C l f - & $ @ @ 7 ( G H H G B 8.7.8.8.0.v  .%X  zX(.u.[ gX        ",
"          OXR U U 3.mX          zX4./ Q z J J P ^ L.nXlXr * hXgX+X& $ $ @ @ + h I G Q L G F | 0.8.8.8.b ( '.mX@.t.2.3. .dX      ",
"            dX3.J #X              (.e.F F G P Y ^ K.bXAXr r AXAXP.% % $ @ + @ l J G j B G L  .8.8.7.q.b Q u.u.) W t.! } R.      ",
"              #XT OX            CXu./ G G Q c R I ~ h * 1 = J.*XF.% $ $ + + # A G G Z D J n 8.8. .j 7.~ Q F Y H K W q.r.E lX    ",
"              dXU ).      CXhXsXP.B G G D f f g P ^ n , , , < < % % $ + + + - Y G G G G Z 9.8.8.' | w.R L H G V H / 6...jX      ",
"              lXZ 4.      K.U.DX+XU G G Z f g Z P P h , , , < < % $ + + + + f G G G G H Z 2.8.8.X.8.w.R L G E t._ 3.@XnX        ",
"              mXB V lX  lX[  .E.dXQ J G G D J G F P l , , , < < < @ + + + # Z G G / / G K v 8.K.fXL.4.| 3.^ t.( u.FX            ",
"                2.U R.).6.( | J.gX' P G G G Y P J J C 1 , 1 y h.t 1 w w w g G H _ h f P G c 9.*XZXZXsX+XlX4./ E lX              ",
"                (.J r.( R (.E.K.gXb J G G G ! f G G e.k 1 Q.Y.h.h.Y.Y.p h F H ^ d 4 d F P b 8.I.BXZXBXgXP.dXU  .mX              ",
"                jXE E (.zX      jXS G G G G L g G G /  X+.i p Y.Q.i t 2./ G G R d f Z G v 7.8.[ gXMXxX] K.FXE R zX              ",
"                  jXlX          #XQ G G G G G G J I ^ ~ _.oX].3.u.a.s.b L G G Z z Z G N 9.7.7.8.G.cX] 6.| nX).^ dX              ",
"                                mX+.c | E R ^ Q c b c w.0. .......| R I G G G G G G G D  .0.0.7.6.] U.{ _ 5.[ I $X              ",
"                                  fXbXbXbXsXP.+XhXsXgXR.} } } *.+.| ! ^ I I ^ ^ P G G G b 7.5.E E sXgXnX`._ L J u.              ",
"                                  fXVXZXCXVXNXMXVXfXbXhX2X3 3 J.bXbXP.' n ..T.R.@.Q I H b  .R.E.xXsX      OXL H R CX            ",
"                                  P.2XsXgXFXMXCXCXMX*XfXMX2 i NXfXbX*XbXbXxXbXMXbX+XT.[ R.hXbXNXZXfX        #XW B DX            ",
"                                  P.9 9 8 6 5 e ] J.I.2XE.3 h.NX2XfXZXCXCXCXCXZXBXMXxX*XxXbXNXgXJ.P.          lXjX              ",
"                                  hX] e 5 5 8 9 9 q q 9 2 3 2 5 t G.L.P.2XhXFXDXZXZXbX*XxXI.t 5 8 sX                            ",
"                                      CXDXgXgXsXE.L.G.t 5 2 2 8 9 q 9 9 9 8 6 5 e ] G.r 6 9 8 e L.FX                            ",
"                                                        MXbXgX2X2XW.J.] t 5 5 6 8 9 6 5 5 G.sXnX                                ",
"                                                                          CXFXgXsX+XP.P.lX                                      ",
"                                                                                                                                ",
"                                                                                                                                ",
"                                                                                                                                ",
"                                                                                                                                ",
"                                                                                                                                ",
"                                                                                                                                ",
"                                                                                                                                "
};
